<svg id="outside__weather" class="weather-13n weather-13d" xmlns="http://www.w3.org/2000/svg" xmlns:xlink="http://www.w3.org/1999/xlink" viewBox="0 0 293.01 203.38" width="40%" x="30%" y="-5%">
  <defs>
    <style>
      .weather-13__cls-1 {
        fill: url(#weather-13__linear-gradient-2);
      }

      .weather-13__cls-2 {
        fill: url(#weather-13__linear-gradient);
      }
    </style>
    <linearGradient id="weather-13__linear-gradient" x1="117.47" y1="21.75" x2="15.85" y2="123.37" gradientUnits="userSpaceOnUse">
      <stop offset="0" stop-color="#22a6b3"/>
      <stop offset=".27" stop-color="#24a7b4"/>
      <stop offset=".47" stop-color="#2eacb8"/>
      <stop offset=".64" stop-color="#3db4c0"/>
      <stop offset=".8" stop-color="#54c0ca"/>
      <stop offset=".94" stop-color="#70cfd8"/>
      <stop offset="1" stop-color="#7ed6df"/>
    </linearGradient>
    <linearGradient id="weather-13__linear-gradient-2" x1="282.39" y1="118.71" x2="213.21" y2="187.88" xlink:href="#weather-13__linear-gradient"/>
  </defs>
  <g>
    <path class="weather-13__cls-2" d="M127.09,89.67l-20.79,3.98-31.05-21.08,31.08-21.04,20.79,4c.32,.06,.64,.09,.96,.09,2.36,0,4.47-1.67,4.93-4.08,.52-2.73-1.26-5.36-3.99-5.89l-10.91-2.1,7.59-5.14c2.3-1.56,2.9-4.68,1.34-6.98-1.56-2.3-4.68-2.9-6.98-1.34l-6.83,4.63,1.87-9.69c.52-2.73-1.26-5.36-3.99-5.89-2.72-.52-5.36,1.26-5.89,3.99l-3.77,19.57-29.82,20.2V27.5l14.09-14.09c1.96-1.96,1.96-5.15,0-7.11-1.96-1.96-5.15-1.96-7.11,0l-6.98,6.98V5.03c0-2.78-2.25-5.03-5.03-5.03s-5.03,2.25-5.03,5.03V14.19l-7.86-7.86c-1.96-1.96-5.15-1.96-7.11,0s-1.96,5.15,0,7.11l14.97,14.97V63.17l-29.87-20.28-3.74-19.57c-.52-2.73-3.15-4.51-5.88-3.99-2.73,.52-4.51,3.15-3.99,5.88l1.85,9.7-6.83-4.64c-2.3-1.56-5.42-.96-6.98,1.34-1.56,2.3-.96,5.42,1.34,6.98l7.58,5.15-10.92,2.09c-2.73,.52-4.51,3.15-3.99,5.88,.46,2.41,2.57,4.08,4.93,4.08,.31,0,.63-.03,.95-.09l20.79-3.98,30.69,20.84-30.71,20.8-20.79-4c-2.73-.52-5.36,1.26-5.89,3.99-.52,2.73,1.26,5.36,3.99,5.89l10.91,2.1-7.59,5.14c-2.3,1.56-2.9,4.68-1.34,6.98,.97,1.44,2.56,2.21,4.17,2.21,.97,0,1.95-.28,2.81-.87l6.83-4.63-1.87,9.69c-.52,2.73,1.26,5.36,3.99,5.89,.32,.06,.64,.09,.96,.09,2.36,0,4.47-1.67,4.93-4.08l3.77-19.57,29.82-20.2v36.65l-14.09,14.09c-1.96,1.96-1.96,5.15,0,7.11,.98,.98,2.27,1.47,3.55,1.47s2.57-.49,3.55-1.47l6.98-6.98v8.25c0,2.78,2.25,5.03,5.03,5.03s5.03-2.25,5.03-5.03v-9.16l7.86,7.86c1.96,1.96,5.15,1.96,7.11,0,1.96-1.96,1.96-5.15,0-7.11l-14.97-14.97v-35.54l29.87,20.28,3.74,19.57c.46,2.41,2.57,4.08,4.93,4.08,.31,0,.63-.03,.95-.09,2.73-.52,4.51-3.15,3.99-5.88l-1.85-9.7,6.83,4.64c.86,.59,1.85,.87,2.82,.87,1.61,0,3.19-.77,4.16-2.2,1.56-2.3,.96-5.42-1.34-6.98l-7.58-5.15,10.92-2.09c2.73-.52,4.51-3.15,3.99-5.88-.52-2.73-3.16-4.51-5.88-3.99Z"/>
  </g>
  <g>
    <path class="weather-13__cls-1" d="M288.93,164.94l-14.15,2.71-21.14-14.35,21.15-14.33,14.15,2.72c.22,.04,.44,.06,.65,.06,1.61,0,3.04-1.14,3.36-2.78,.36-1.86-.86-3.65-2.71-4.01l-7.43-1.43,5.16-3.5c1.57-1.06,1.97-3.19,.91-4.75-1.06-1.56-3.19-1.97-4.75-.91l-4.65,3.15,1.27-6.6c.36-1.86-.86-3.65-2.71-4.01-1.85-.36-3.65,.86-4.01,2.71l-2.56,13.32-20.3,13.75v-24.09l9.59-9.59c1.34-1.34,1.34-3.5,0-4.84-1.34-1.34-3.5-1.34-4.84,0l-4.75,4.75v-5.62c0-1.89-1.53-3.42-3.42-3.42s-3.42,1.53-3.42,3.42v6.24l-5.35-5.35c-1.34-1.34-3.5-1.34-4.84,0-1.34,1.34-1.34,3.5,0,4.84l10.19,10.19v23.66l-20.34-13.81-2.55-13.32c-.35-1.86-2.15-3.07-4-2.72-1.86,.36-3.07,2.15-2.72,4l1.26,6.6-4.65-3.16c-1.56-1.06-3.69-.65-4.75,.91-1.06,1.56-.65,3.69,.91,4.75l5.16,3.5-7.43,1.42c-1.86,.36-3.07,2.15-2.72,4,.31,1.64,1.75,2.78,3.36,2.78,.21,0,.43-.02,.65-.06l14.15-2.71,20.89,14.18-20.91,14.16-14.15-2.72c-1.86-.36-3.65,.86-4.01,2.71-.36,1.86,.86,3.65,2.71,4.01l7.43,1.43-5.16,3.5c-1.56,1.06-1.97,3.19-.91,4.75,.66,.98,1.74,1.5,2.84,1.5,.66,0,1.33-.19,1.92-.59l4.65-3.15-1.27,6.6c-.36,1.86,.86,3.65,2.71,4.01,.22,.04,.44,.06,.65,.06,1.61,0,3.04-1.14,3.36-2.78l2.56-13.32,20.3-13.75v24.95l-9.59,9.59c-1.34,1.34-1.34,3.5,0,4.84,.67,.67,1.54,1,2.42,1s1.75-.33,2.42-1l4.75-4.75v5.62c0,1.89,1.53,3.42,3.42,3.42s3.42-1.53,3.42-3.42v-6.24l5.35,5.35c1.34,1.34,3.5,1.34,4.84,0,1.34-1.34,1.34-3.5,0-4.84l-10.19-10.19v-24.19l20.34,13.81,2.55,13.32c.31,1.64,1.75,2.78,3.36,2.78,.21,0,.43-.02,.65-.06,1.86-.36,3.07-2.15,2.72-4l-1.26-6.6,4.65,3.16c.59,.4,1.26,.59,1.92,.59,1.1,0,2.17-.53,2.83-1.5,1.06-1.56,.65-3.69-.91-4.75l-5.16-3.5,7.43-1.42c1.86-.36,3.07-2.15,2.72-4-.36-1.86-2.15-3.07-4-2.72Z"/>
  </g>
</svg>
