<svg id="outside__weather" class="weather-09n weather-09d" xmlns="http://www.w3.org/2000/svg" xmlns:xlink="http://www.w3.org/1999/xlink" viewBox="0 0 401.61 302.61" width="45%" x="20%" y="-15%">
  <defs>
    <linearGradient id="weather-09__linear-gradient" x1="325.06" y1="34.4" x2="101.16" y2="258.3" gradientUnits="userSpaceOnUse">
      <stop offset="0" stop-color="#fff"/>
      <stop offset=".22" stop-color="#fcfcfc" stop-opacity="1"/>
      <stop offset=".4" stop-color="#f3f3f3" stop-opacity=".99"/>
      <stop offset=".57" stop-color="#e4e4e4" stop-opacity=".97"/>
      <stop offset=".72" stop-color="#d0d0d0" stop-opacity=".95"/>
      <stop offset=".87" stop-color="#b5b5b5" stop-opacity=".93"/>
      <stop offset="1" stop-color="#999" stop-opacity=".9"/>
    </linearGradient>
    <linearGradient id="weather-09__linear-gradient-2" x1="196.22" y1="102.89" x2="49.99" y2="249.11" xlink:href="#weather-09__linear-gradient"/>
    <linearGradient id="weather-09__linear-gradient-3" x1="104.79" y1="302.61" x2="104.79" y2="266.35" gradientUnits="userSpaceOnUse">
      <stop offset="0" stop-color="#22a6b3"/>
      <stop offset=".26" stop-color="#35b0bc"/>
      <stop offset=".8" stop-color="#68cbd4"/>
      <stop offset="1" stop-color="#7ed6df"/>
    </linearGradient>
    <linearGradient id="weather-09__linear-gradient-4" x1="180.67" y1="302.61" x2="180.67" xlink:href="#weather-09__linear-gradient-3"/>
    <linearGradient id="weather-09__linear-gradient-5" x1="253.62" y1="302.61" x2="253.62" xlink:href="#weather-09__linear-gradient-3"/>
  </defs>
  <g>
    <path fill="url(#weather-09__linear-gradient)" d="M316.14,60.88h-1.95c-10.85,0-20.6-6.18-25.72-15.75C274.06,18.27,245.73,0,213.11,0h0c-32.44,0-60.64,18.07-75.12,44.7-5.48,10.07-16.18,16.19-27.65,16.19h-.27c-47.2,0-85.47,38.27-85.47,85.47h0c0,47.2,38.27,85.47,85.47,85.47h206.06c47.2,0,85.47-38.27,85.47-85.47h0c0-47.2-38.27-85.47-85.47-85.47Z"/>
  </g>
  <g>
    <path fill="url(#weather-09__linear-gradient-2)" d="M190.4,120.18h-1.27c-7.09,0-13.45-4.04-16.8-10.28-9.41-17.54-27.91-29.48-49.21-29.48h0c-21.18,0-39.6,11.8-49.06,29.19-3.58,6.58-10.57,10.57-18.06,10.57h-.17C24.99,120.18,0,145.17,0,176H0c0,30.83,24.99,55.82,55.82,55.82H190.4c30.83,0,55.82-24.99,55.82-55.82h0c0-30.83-24.99-55.82-55.82-55.82Z"/>
  </g>
  <g>
    <path fill="url(#weather-09__linear-gradient-3)" d="M116.48,294.86c.5-1.41,.7-2.88,.63-4.33,0-3.12-.14-6.47-.44-10.01-.45-5.2-1.2-9.95-2.08-14.16-3.15,2.01-6.62,4.49-10.21,7.53-3.61,3.05-6.64,6.07-9.15,8.84l.05,.02c-.73,.83-1.35,1.76-1.83,2.79-2.85,6.23,.66,13.67,6.85,16.17,6.16,2.5,13.87-.35,16.17-6.85Z"/>
  </g>
  <g>
    <path fill="url(#weather-09__linear-gradient-4)" d="M192.36,294.86c.5-1.41,.7-2.88,.63-4.33,0-3.12-.14-6.47-.44-10.01-.45-5.2-1.2-9.95-2.08-14.16-3.15,2.01-6.62,4.49-10.21,7.53-3.61,3.05-6.64,6.07-9.15,8.84l.05,.02c-.73,.83-1.35,1.76-1.83,2.79-2.85,6.23,.66,13.67,6.85,16.17,6.16,2.5,13.87-.35,16.17-6.85Z"/>
  </g>
  <g>
    <path fill="url(#weather-09__linear-gradient-5)" d="M265.31,294.86c.5-1.41,.7-2.88,.63-4.33,0-3.12-.14-6.47-.44-10.01-.45-5.2-1.2-9.95-2.08-14.16-3.15,2.01-6.62,4.49-10.21,7.53-3.61,3.05-6.64,6.07-9.15,8.84l.05,.02c-.73,.83-1.35,1.76-1.83,2.79-2.85,6.23,.66,13.67,6.85,16.17,6.16,2.5,13.87-.35,16.17-6.85Z"/>
  </g>
</svg>
